<?xml version="1.0" standalone="no"?>
<!DOCTYPE svg PUBLIC "-//W3C//DTD SVG 20010904//EN"
 "http://www.w3.org/TR/2001/REC-SVG-20010904/DTD/svg10.dtd">
<svg class="tab-icon" version="1.0" xmlns="http://www.w3.org/2000/svg"
 width="700.000000pt" height="700.000000pt" viewBox="0 0 700.000000 700.000000"
 preserveAspectRatio="xMidYMid meet">
<metadata>
Created by potrace 1.14, written by Peter Selinger 2001-2017
</metadata>
<g transform="translate(0.000000,700.000000) scale(0.100000,-0.100000)"
fill="#000000" stroke="none">
<path d="M1630 6993 c-371 -65 -644 -315 -732 -670 l-21 -88 0 -2735 0 -2735
21 -88 c64 -259 236 -475 468 -587 80 -38 103 -46 209 -70 76 -18 172 -18
1945 -17 1026 2 1879 6 1895 10 17 4 59 17 95 28 298 95 516 329 592 636 l21
88 2 2705 c1 2170 -2 2721 -12 2788 -49 316 -260 574 -559 687 -146 55 -71 53
-2059 53 -1012 -1 -1851 -3 -1865 -5z m3730 -447 c155 -40 270 -155 310 -309
17 -69 18 -180 18 -2734 0 -1523 -4 -2682 -9 -2710 -22 -114 -109 -238 -209
-295 -25 -14 -72 -34 -105 -44 -56 -16 -171 -17 -1839 -18 -1292 -1 -1798 2
-1847 10 -140 24 -262 115 -320 237 -16 35 -33 75 -36 88 -10 37 -12 5382 -2
5436 35 185 191 328 383 352 28 3 848 6 1821 5 1621 -1 1775 -3 1835 -18z"/>
<path d="M1923 6119 c-67 -14 -130 -67 -159 -134 -10 -23 -13 -142 -14 -513 0
-452 1 -486 18 -525 23 -50 60 -89 110 -114 35 -17 103 -18 1602 -20 1725 -2
1636 -5 1700 59 68 70 65 44 68 573 3 526 2 538 -54 603 -70 82 75 75 -1681
76 -859 1 -1574 -2 -1590 -5z"/>
<path d="M1924 4369 c-45 -9 -89 -35 -118 -70 -53 -63 -56 -80 -56 -363 0
-254 1 -262 24 -311 25 -53 44 -73 98 -102 29 -16 65 -18 296 -21 296 -4 334
2 389 61 65 68 66 77 68 352 1 138 -3 268 -7 289 -13 60 -57 115 -113 145 -49
25 -51 25 -300 26 -138 0 -264 -2 -281 -6z"/>
<path d="M3226 4365 c-58 -15 -101 -48 -133 -103 l-28 -47 0 -277 c0 -273 0
-278 24 -320 13 -24 37 -54 53 -67 57 -46 86 -50 363 -50 290 -1 308 3 372 70
57 60 61 87 60 380 l-2 264 -28 47 c-28 48 -63 79 -113 99 -39 16 -509 19
-568 4z"/>
<path d="M4541 4369 c-51 -10 -113 -61 -141 -115 -24 -47 -24 -50 -25 -308 0
-228 3 -267 18 -308 21 -55 83 -113 136 -128 20 -5 151 -10 292 -10 l257 0 53
28 c41 21 61 40 86 81 l32 53 1 267 c1 289 -2 306 -56 370 -15 18 -45 41 -68
53 -38 20 -57 21 -297 22 -140 1 -270 -1 -288 -5z"/>
<path d="M1935 3058 c-65 -9 -124 -52 -157 -113 l-27 -50 -1 -252 c0 -155 4
-269 11 -296 14 -57 57 -110 113 -137 42 -20 60 -21 309 -22 242 0 268 2 308
19 53 24 91 61 115 111 16 33 18 68 18 292 0 140 -3 271 -7 291 -14 67 -98
145 -171 156 -49 8 -459 9 -511 1z"/>
<path d="M3254 3059 c-65 -8 -128 -50 -162 -108 l-27 -46 0 -281 0 -281 30
-49 c22 -35 46 -57 83 -77 l53 -29 268 1 c299 1 317 4 377 67 57 62 62 91 60
385 l-1 264 -27 46 c-29 50 -85 92 -137 104 -41 9 -449 12 -517 4z"/>
<path d="M4565 3059 c-73 -10 -130 -52 -166 -120 l-23 -44 -1 -913 c0 -1004
-2 -974 61 -1037 65 -66 78 -68 379 -69 258 0 272 1 312 22 50 26 96 80 112
131 16 54 16 1828 0 1882 -23 75 -87 130 -168 145 -44 9 -450 11 -506 3z"/>
<path d="M1885 1731 c-49 -22 -87 -57 -112 -102 -16 -30 -18 -64 -21 -296 -2
-159 1 -276 7 -300 14 -50 63 -108 114 -135 40 -21 53 -22 317 -22 306 0 306
0 375 71 56 57 61 91 60 381 -1 242 -3 259 -23 299 -26 51 -85 100 -134 114
-21 5 -149 9 -290 9 -222 -1 -259 -4 -293 -19z"/>
<path d="M3207 1736 c-55 -20 -91 -52 -124 -111 -15 -26 -18 -65 -19 -294 -1
-147 3 -280 8 -300 14 -50 54 -98 107 -129 l45 -26 255 -1 c177 -1 269 2 299
11 58 17 107 56 134 107 22 40 23 54 24 311 1 297 -2 318 -60 377 -63 64 -88
69 -374 69 -189 -1 -267 -4 -295 -14z"/>
</g>
</svg>
